# xmcd CD database file
#
# Track frame offsets:
#	150
#	1035
#	18942
#	29112
#	43412
#	57077
#	70125
#	87417
#	100852
#	114525
#	124140
#	137222
#	152012
#
# Disc length: 2645 seconds
#
# Revision: 6
# Processed by: cddbd v1.5.2PL0 Copyright (c) Steve Scherf et al.
# Submitted via: CDex 1.70beta2
#
DISCID=ac0a530d
DTITLE=The Offspring - Americana
DYEAR=1998
DGENRE=Punk
TTITLE0=Welcome
TTITLE1=Have You Ever
TTITLE2=Staring at the Sun
TTITLE3=Pretty Fly (For a White Guy)
TTITLE4=The Kids aren't Alright
TTITLE5=Feelings
TTITLE6=She's Got Issues
TTITLE7=Walla Walla
TTITLE8=The End of the Line
TTITLE9=No Brakes
TTITLE10=Why Don't You Get a Job?
TTITLE11=Americana
TTITLE12=Pay the Man
EXTD=YEAR: 1998
EXTT0=
EXTT1=
EXTT2=
EXTT3=
EXTT4=
EXTT5=
EXTT6=
EXTT7=
EXTT8=
EXTT9=
EXTT10=
EXTT11=
EXTT12=
PLAYORDER=
